<svg xmlns="http://www.w3.org/2000/svg" width="660.912" height="146" viewBox="0 0 660.912 146">
  <defs>
    <style>
      .cls-1 {
        fill: #e53212;
      }

      .cls-2 {
        fill: #fff;
      }
    </style>
  </defs>
  <g id="JM_Mueller_logo_neu" transform="translate(-11.4 -13.5)">
    <g id="Gruppe_3260" data-name="Gruppe 3260" transform="translate(193.692 20.991)">
      <path id="Pfad_4029" data-name="Pfad 4029" class="cls-1" d="M136.882,73.712c9.656,0,16.981-5.66,16.981-16.148V25.6H143.041V57.564c0,2.83-1.332,5.66-6.16,5.66-3.662,0-5.161-1.332-6.659-4L120.9,64.556C124.063,70.549,129.39,73.712,136.882,73.712Z" transform="translate(-120.9 -12.948)"/>
      <path id="Pfad_4030" data-name="Pfad 4030" class="cls-1" d="M176.561,72.713h11.82L172.4,25.6H158.582L142.6,72.713h11.82l2.331-7.491h17.48Zm-16.648-17.48,5.494-17.314L170.9,55.233Z" transform="translate(-106.475 -12.948)"/>
      <path id="Pfad_4031" data-name="Pfad 4031" class="cls-1" d="M183.721,50.9,198.7,72.713h12.319L194.375,48.574,210.357,25.6H198.038L183.721,46.077V25.6H172.9V72.713h10.821Z" transform="translate(-86.332 -12.948)"/>
      <path id="Pfad_4032" data-name="Pfad 4032" class="cls-1" d="M243.944,49.572a24.472,24.472,0,1,0-24.472,24.472A24.3,24.3,0,0,0,243.944,49.572ZM219.472,63.556a13.518,13.518,0,0,1-13.818-13.984c0-8.49,5.993-13.984,13.818-13.984A13.518,13.518,0,0,1,233.29,49.572,13.518,13.518,0,0,1,219.472,63.556Z" transform="translate(-71.641 -13.28)"/>
      <path id="Pfad_4033" data-name="Pfad 4033" class="cls-1" d="M263.46,58.9a12.111,12.111,0,0,0-5.827-10.655,11.925,11.925,0,0,0,4.162-9.156c0-8.157-6.659-13.485-14.816-13.485H228.5V72.713h19.811C256.635,72.713,263.46,67.386,263.46,58.9Zm-24.139-23.14h7.658a4.022,4.022,0,0,1,4.162,4.162,3.932,3.932,0,0,1-4.162,4.162h-7.658Zm0,17.979h8.99a4.495,4.495,0,1,1,0,8.99h-8.99Z" transform="translate(-49.371 -12.948)"/>
      <path id="Pfad_4034" data-name="Pfad 4034" class="cls-1" d="M287.173,46.576,274.521,25.6H263.7V72.713h10.821v-27.3l12.153,19.977h1.165l12.153-19.977v27.3h10.821V25.6H299.992Z" transform="translate(-25.971 -12.948)"/>
      <path id="Pfad_4035" data-name="Pfad 4035" class="cls-1" d="M322.7,56.565c0,3.5-1.665,6.659-7.491,6.659s-7.492-3-7.492-6.659V25.6H296.9V57.564c0,10.155,7.824,16.148,18.146,16.148s18.146-5.993,18.146-16.148V25.6H322.371V56.565Z" transform="translate(-3.901 -12.948)"/>
      <path id="Pfad_4036" data-name="Pfad 4036" class="cls-1" d="M334.655,25.6H324V72.713h27.469V62.391H334.655Z" transform="translate(14.114 -12.948)"/>
      <path id="Pfad_4037" data-name="Pfad 4037" class="cls-1" d="M354.621,25.6H343.8V72.713h27.635V62.391H354.621Z" transform="translate(27.276 -12.948)"/>
      <path id="Pfad_4038" data-name="Pfad 4038" class="cls-1" d="M374.421,54.068h16.814V43.746H374.421V36.088H392.9V25.6H363.6V72.713h29.633V62.391H374.421Z" transform="translate(40.439 -12.948)"/>
      <path id="Pfad_4039" data-name="Pfad 4039" class="cls-1" d="M412.8,55.4a15.525,15.525,0,0,0,8.657-13.651A16.058,16.058,0,0,0,405.312,25.6H386.5V72.713h10.821V57.231h5.161l8.823,15.482h11.653Zm-7.491-7.491h-8.157V35.755h8.157c3,0,5.327,2.664,5.327,5.993S408.309,47.908,405.312,47.908Z" transform="translate(55.662 -12.948)"/>
      <path id="Pfad_4040" data-name="Pfad 4040" class="cls-1" d="M145.972,94.3h12.652c-1.665,4.495-5.827,7.325-11.986,7.325-9.156,0-14.816-5.827-14.816-13.818,0-8.324,5.993-14.151,13.818-14.151,5.327,0,9.489,2.5,11.487,5.494l9.156-5.327A24.8,24.8,0,0,0,121,87.639c0,13.485,10.655,24.472,25.471,24.472,13.152,0,23.307-8.823,23.307-23.14v-4H145.972Z" transform="translate(-120.834 11.915)"/>
      <path id="Pfad_4041" data-name="Pfad 4041" class="cls-1" d="M189.26,79.748A16.058,16.058,0,0,0,173.112,63.6H154.3v47.113h10.821V95.231h5.161l8.823,15.482h11.653L180.77,93.4A15.884,15.884,0,0,0,189.26,79.748Zm-16.148,5.993h-8.157V73.589h8.157c3,0,5.327,2.664,5.327,5.993C178.439,83.078,175.942,85.741,173.112,85.741Z" transform="translate(-98.697 12.313)"/>
      <path id="Pfad_4042" data-name="Pfad 4042" class="cls-1" d="M202.372,63a24.472,24.472,0,1,0,24.472,24.472A24.3,24.3,0,0,0,202.372,63Zm0,38.456a13.518,13.518,0,0,1-13.818-13.984c0-8.49,5.993-13.984,13.818-13.984A13.518,13.518,0,0,1,216.19,87.472C216.19,95.962,210.03,101.456,202.372,101.456Z" transform="translate(-83.008 11.914)"/>
      <path id="Pfad_4043" data-name="Pfad 4043" class="cls-1" d="M236.637,94.565c0,3.5-1.665,6.659-7.491,6.659-5.66,0-7.491-3-7.491-6.659V63.6H211V95.564c0,10.155,7.824,16.148,18.146,16.148s18.146-5.993,18.146-16.148V63.6H236.471V94.565Z" transform="translate(-61.005 12.313)"/>
      <path id="Pfad_4044" data-name="Pfad 4044" class="cls-1" d="M255.713,63.6H237.9v47.113h10.821V95.9h6.992a16.152,16.152,0,1,0,0-32.3Zm0,22.141h-6.992V73.589h6.992a5.7,5.7,0,0,1,5.66,5.993A5.647,5.647,0,0,1,255.713,85.741Z" transform="translate(-43.122 12.313)"/>
      <rect id="Rechteck_2552" data-name="Rechteck 2552" class="cls-1" width="36.292" height="7.325" transform="translate(293.332 0)"/>
    </g>
    <g id="Gruppe_3262" data-name="Gruppe 3262" transform="translate(11.4 13.5)">
      <rect id="Rechteck_2553" data-name="Rechteck 2553" class="cls-1" width="146" height="146" transform="translate(0 0)"/>
      <path id="Pfad_4045" data-name="Pfad 4045" class="cls-2" d="M136.168,90.822V70.512l-4.661.832a53.446,53.446,0,0,0-4.661-14.317l4.328-2L119.187,38.382l-3.33,3.33A52.767,52.767,0,0,0,103.7,32.888l2.164-4.162L86.391,22.4l-.666,4.661a56.437,56.437,0,0,0-14.983,0L70.077,22.4,50.6,28.726l2.164,4.162A52.767,52.767,0,0,0,40.61,41.711l-3.33-3.5L25.294,54.7l4.328,2.164a53.446,53.446,0,0,0-4.661,14.317L20.3,70.345V90.822l4.661-.832a53.445,53.445,0,0,0,4.661,14.317l-4.328,2,11.986,16.481,3.33-3.33a52.767,52.767,0,0,0,12.153,8.823L50.6,132.441l19.478,6.326.666-4.661a56.437,56.437,0,0,0,14.983,0l.666,4.661,19.478-6.326-2.164-4.162a52.767,52.767,0,0,0,12.153-8.823l3.33,3.33L131.173,106.3l-4.328-2a53.445,53.445,0,0,0,4.661-14.317Z" transform="translate(-5.484 -7.584)"/>
      <circle id="Ellipse_34" data-name="Ellipse 34" class="cls-1" cx="47.446" cy="47.446" r="47.446" transform="translate(25.471 25.471)"/>
      <g id="Gruppe_3261" data-name="Gruppe 3261" transform="translate(53.772 37.291)">
        <rect id="Rechteck_2554" data-name="Rechteck 2554" class="cls-2" width="14.151" height="3.829" transform="translate(0 13.485)"/>
        <rect id="Rechteck_2555" data-name="Rechteck 2555" class="cls-2" width="5.327" height="53.273" transform="translate(17.314)"/>
        <rect id="Rechteck_2556" data-name="Rechteck 2556" class="cls-2" width="5.327" height="53.273" transform="translate(25.804)"/>
        <path id="Pfad_4046" data-name="Pfad 4046" class="cls-2" d="M64.3,81.062V48.1h9.489v4.162h-4v9.989h4v4.162h-4V76.568h6.16V48.1h7.824c3.829,0,6.493,1.332,6.493,5.993V59.42c0,4-2.83,4.495-4.162,4.661-.166,0-.166.166,0,.166,1.5.333,4.162,1.165,4.162,4.828V80.729H84.943V69.243c0-2.331-1.165-3-2.5-3h-1V80.729H64.3Z" transform="translate(-30.006 -27.79)"/>
      </g>
      <path id="Pfad_4047" data-name="Pfad 4047" class="cls-2" d="M47.415,81.062H40.256L36.427,55.924c0-.333-.166-.333-.5-.333a.358.358,0,0,0-.333.333V81.062H31.1V48.1h9.989l2.83,23.14s0,.5.333.5.333-.5.333-.5L48.247,48.1h8.99V75.069a1.665,1.665,0,1,0,3.33,0V48.1H66.06V75.069c0,2.164-.5,6.326-6.992,6.326-6.659,0-7.159-4.162-7.159-6.326V55.758a.358.358,0,0,0-.333-.333c-.333,0-.333,0-.5.333Z" transform="translate(1.696 9.501)"/>
      <path id="Pfad_4048" data-name="Pfad 4048" class="cls-1" d="M78,58.358c0,1.831-.832,2.5-2.331,2.5H74.5V50.7h1.165c1.5,0,2.331.5,2.331,2.331Z" transform="translate(30.547 11.229)"/>
    </g>
  </g>
</svg>
